<svg version="1" xmlns="http://www.w3.org/2000/svg" width="682.667" height="682.667" viewBox="0 0 512.000000 512.000000"><path d="M77.1 118.2c-36 5.4-62.5 35.9-62.3 71.9.1 31.6 19.7 58.6 50.1 69 9 3.1 22.3 4.2 33.1 2.6 8.3-1.1 24.3-7.6 29.4-11.9.6-.4 2.2-1.8 3.6-2.9 1.4-1.2 3.4-2.9 4.5-3.8 4.3-3.3 11.4-13.2 15.1-20.6 2.1-4.3 3.9-8.2 4-8.9.3-1 .6-2.5 1.9-7.6.3-1.1.7-3 1-4.3.7-2.6.7-17.9 0-22.2-.4-3.3-1.2-6.9-1.5-7.3-.2-.1-.3-.5-.4-1-.1-.4-.5-1.3-1-2-.4-.7-.6-1.6-.3-1.9.3-.3-.3-2.1-1.4-4-1.2-2-1.4-3.2-.7-2.8.7.4.5 0-.6-.9-1-.8-1.5-1.9-1.1-2.5.3-.6.2-1.1-.3-1.1s-1.7-1.5-2.5-3.3c-.9-1.7-2.6-4.5-3.9-6.1-3-3.9-13.4-14.5-12.3-12.7.5.9.4 1.2-.3.7-.7-.4-1.2-1.4-1.2-2.3 0-.9-.3-1.4-.6-1-.3.3-2.9-1-5.6-2.9-2.8-1.8-5.4-3.1-5.9-2.8-.5.3-.9 0-.9-.6s-.4-.8-1-.5c-.5.3-1 .2-1-.4 0-.9-5-2.7-8.5-3.2-.5 0-1.7-.5-2.5-.9-3.7-2-18.7-3-26.9-1.8zM419.8 117.5c-.2.2-2.3.5-4.8.8-5.2.7-17.1 4.2-21.5 6.4-43.9 22.2-54 80.5-20 115.7 14.2 14.8 32 22.3 52 22 16.7-.3 32.7-6.1 44.4-16.1 1.5-1.2 3.6-3 4.9-4.1 1.2-1.1 2.2-2.4 2.2-3.1 0-.6.7-1.1 1.5-1.1s1.5-.6 1.5-1.4c0-.8.7-1.7 1.6-2 .8-.3 1.2-1 .9-1.6-.3-.5-.2-1 .4-1 1 0 4.9-6.6 4.9-8.4 0-.5.4-1.2.9-1.5 1.2-.9 4.5-8.3 3.9-8.9-.3-.2 0-1.4.6-2.6 1.9-3.4 2.1-5.3 2-19.6-.1-15.1-.4-20-1.3-20-.3 0-.6-.7-.7-1.5-.1-.8-.3-2.2-.4-3-.1-.8-.5-1.5-1-1.5s-.6-.5-.3-1c.3-.6.1-1-.6-1s-.9-.3-.6-.6c.3-.4.1-1.6-.5-2.8-.7-1.1-1.2-2.4-1.3-2.8 0-.4-.8-1.7-1.7-2.8-1-1.1-1.8-2.4-1.8-2.9 0-.4-1.1-2-2.5-3.5-1.3-1.4-2.2-2.6-1.9-2.6.3 0-.7-1.1-2.1-2.5-1.4-1.4-2.5-3.1-2.5-3.7 0-.6-.3-.8-.6-.5-.4.3-1.9-.7-3.4-2.3-1.6-1.7-3.3-3-3.8-3-.6 0-1.2-.4-1.4-.8-.3-.8-6.8-5.6-7.8-5.8-.3 0-2.7-1.1-5.5-2.4-2.7-1.3-6.1-2.6-7.4-2.8-1.4-.2-3.2-.7-4-1.1-2.8-1.5-21.2-3.6-22.3-2.6zM250.8 225.6c-.2.1-2.8.5-5.8.9-10.1 1.3-25.4 9.9-32.5 18.4-7.3 8.6-13.2 22.3-13.6 31.6-.4 6-.3 5.9-11.4 7-8.1.8-25.9 3-32 4.1-1.1.2-3.8.6-6 .9-3.8.5-5.6.8-11.5 2.1-1.4.2-5.9 1.2-10 2s-8.8 1.9-10.5 2.4c-1.6.5-4.3 1.2-6 1.5-3.8.8-3.2.6-15.5 4.4-41.9 13.1-66.4 30.9-68.3 49.6-1.8 17.9 16.6 34.7 53.5 48.9 23.6 9 42.6 13.6 83.2 20.1 4.7.7 10.7 1.4 16.6 2l11 1.1c31.1 3.2 89.6 3.7 115.5 1 1.7-.2 6.2-.6 10-1 3.9-.4 8.6-.9 10.5-1.1 1.9-.2 6.2-.7 9.5-1 3.3-.3 6.7-.8 7.5-1 .8-.2 3.5-.6 6-.9 2.5-.3 5.6-.8 7-1.1 1.3-.2 4.2-.7 6.5-1 2.2-.4 6.9-1.3 10.5-2 3.6-.8 7.6-1.6 9-1.9 1.4-.2 5.4-1.2 9-2.1 3.6-.9 7.3-1.9 8.3-2.1 4.1-1 5.5-1.4 11.7-3.4 3.6-1.2 7-2.3 7.5-2.4 1.2-.3 2.8-1 11-4.3 3.3-1.3 6.5-2.5 7-2.7 2-.5 9-4.1 9.6-4.9.3-.5.9-.8 1.3-.8 1.2.1 7.6-3.3 7.6-4.1 0-.5.5-.6 1-.3.6.3 1 .1 1-.4 0-.6.5-1.1 1.1-1.1.6 0 1.6-.6 2.4-1.3.7-.6 2.6-2.2 4.2-3.4 5.9-4.5 13.1-12.4 13.2-14.6 0-.4.8-2.1 1.6-3.8 1.9-3.7 2.3-12.2.7-14.2-.6-.7-.9-1.7-.5-2.1.4-.4.3-1-.2-1.4-1.7-1.2-5.8-7.5-4.4-6.7.8.5-1-1.5-3.9-4.3-2.8-2.9-5.6-5.2-6.2-5.2-.5 0-1.4-.8-1.9-1.9-.6-1-2.2-2.2-3.6-2.5-1.4-.4-2.5-1-2.5-1.5 0-.4-1.8-1.6-4-2.6s-4-2.2-4-2.7c0-.4-.9-.8-2-.8s-2-.5-2-1.2c0-.6-.3-.8-.6-.5-.7.7-6.4-2.1-7.5-3.6-.3-.5-.9-.8-1.3-.8-2 .2-6.6-1.3-6.6-2.2 0-.6-.3-.8-.6-.5-.3.3-2.9-.3-5.7-1.4-2.9-1-5.9-2.1-6.7-2.3-.8-.2-2.6-.8-4-1.3s-2.9-1.1-3.5-1.2c-.5-.1-1.4-.4-2-.6-.5-.2-3.9-1.1-7.5-1.9l-8-2c-1.7-.5-25.3-5.5-28.5-6-1.1-.2-3.8-.7-6-1-2.2-.4-4.9-.8-6-1-1.1-.2-4.2-.6-7-.9-2.7-.4-6.1-.9-7.5-1.2-2.5-.5-3.8-.6-17-1.8-9.5-.9-10-1.2-9.7-4.9.2-1.8-.2-5.2-.9-7.7-.7-2.4-1.1-4.6-.9-4.9.3-.2 0-1-.6-1.8-.6-.7-.8-1.3-.5-1.3.4 0 0-.7-.8-1.6-.9-.8-1.4-2-1.1-2.5.4-.5.1-.9-.5-.9s-.8-.5-.5-1c.3-.6.1-1-.6-1s-.9-.3-.6-.6c.4-.4-.8-2.5-2.5-4.8-4-5.1-9.8-11.8-9.8-11.2 0 .3-1.2-.6-2.6-1.9-1.4-1.3-3.9-3-5.5-3.7-1.6-.7-2.9-1.6-2.9-2 0-.5-.3-.7-.7-.6-.5.1-1.9-.4-3.3-1.2-1.4-.7-2.5-1.2-2.5-1.1 0 .1-1.1-.2-2.5-.7-4.2-1.6-20.2-3.6-21.2-2.6z"/></svg>